<svg width="100" height="100" xmlns="http://www.w3.org/2000/svg">

 <g>
  <title>background</title>
  <rect fill="none" id="canvas_background" height="102" width="102" y="-1" x="-1"/>
 </g>
 <g>
  <title>Layer 1</title>
  <path stroke="null" fill="#f59c00" id="svg_6" d="m49.999999,9.51401c5.467048,0 10.768658,1.070104 15.758094,3.180308c4.820505,2.038891 9.150656,4.958609 12.869819,8.677772c3.719368,3.719368 6.638881,8.049314 8.677977,12.870024c2.110204,4.989231 3.180103,10.290841 3.180103,15.757888c0,5.467048 -1.069899,10.768658 -3.180308,15.758094c-2.039097,4.820505 -4.958609,9.150656 -8.677977,12.869819c-3.719163,3.719368 -8.049314,6.638881 -12.869819,8.677977c-4.989231,2.110204 -10.290841,3.180103 -15.757888,3.180103c-5.467048,0 -10.768658,-1.069899 -15.757888,-3.180308c-4.82071,-2.039097 -9.150656,-4.958609 -12.870024,-8.677977c-3.719163,-3.719163 -6.638881,-8.049314 -8.677772,-12.869819c-2.110204,-4.989231 -3.180308,-10.290841 -3.180308,-15.757888c0,-5.467048 1.070104,-10.768658 3.180308,-15.757888c2.038891,-4.82071 4.958609,-9.150656 8.677772,-12.870024c3.719368,-3.719163 8.049314,-6.638881 12.870024,-8.677772c4.989231,-2.110204 10.290841,-3.180308 15.757888,-3.180308m0,-3.288202c-24.175892,0 -43.774195,19.598303 -43.774195,43.774195s19.598303,43.774195 43.774195,43.774195s43.774195,-19.598303 43.774195,-43.774195s-19.598303,-43.774195 -43.774195,-43.774195l0,0z"/>
  <path stroke="null" fill="#f59c00" id="svg_8" d="m40.411772,68.23702c-0.240152,0 -0.481455,-0.056247 -0.703178,-0.170467c-0.51121,-0.26338 -0.832373,-0.790332 -0.832373,-1.365276l0,-33.402413c0,-0.575136 0.321162,-1.101896 0.832373,-1.365276c0.51121,-0.263572 1.12666,-0.219035 1.595061,0.114797l23.420083,16.701207c0.404092,0.288336 0.644052,0.75405 0.644052,1.250479s-0.23996,0.962143 -0.644052,1.250479l-23.420083,16.701207c-0.2653,0.189088 -0.577823,0.285264 -0.891883,0.285264zm1.535935,-31.956703l0,27.439698l19.239406,-13.719945l-19.239406,-13.719753z"/>
 </g>
</svg>