<svg width="25" height="25" xmlns="http://www.w3.org/2000/svg">

 <g>
  <title>background</title>
  <rect fill="none" id="canvas_background" height="27" width="27" y="-1" x="-1"/>
 </g>
 <g>
  <title>Layer 1</title>
  <path stroke="#f59c00" fill-opacity="0" id="svg_1" stroke-linejoin="round" stroke-linecap="round" fill="#000000" d="m9.513291,20.660118c-5.430379,1.629114 -5.430379,-2.715189 -7.60253,-3.258227m15.205061,6.516455l0,-4.203113a3.660075,3.660075 0 0 0 -1.020911,-2.834658c3.410278,-0.380127 6.994328,-1.672557 6.994328,-7.60253a5.908252,5.908252 0 0 0 -1.629114,-4.072784a5.506404,5.506404 0 0 0 -0.097747,-4.094506s-1.281569,-0.380127 -4.246556,1.607392a14.531694,14.531694 0 0 0 -7.60253,0c-2.964987,-1.987519 -4.246556,-1.607392 -4.246556,-1.607392a5.506404,5.506404 0 0 0 -0.097747,4.094506a5.908252,5.908252 0 0 0 -1.629114,4.105366c0,5.886531 3.58405,7.178961 6.994328,7.60253a3.660075,3.660075 0 0 0 -1.020911,2.802076l0,4.203113"/>
 </g>
</svg>