<svg width="66" height="66" xmlns="http://www.w3.org/2000/svg">

 <g>
  <title>background</title>
  <rect fill="none" id="canvas_background" height="68" width="68" y="-1" x="-1"/>
 </g>
 <g>
  <title>Layer 1</title>
  <path stroke="null" fill="#f59c00" id="svg_1" d="m33.084444,0.920434c-18.012115,0 -32.616102,14.603987 -32.616102,32.616102c0,14.412877 9.344513,26.635952 22.306101,30.947839c1.630423,0.298641 2.225667,-0.708699 2.225667,-1.568694c0,-0.776416 -0.029877,-3.348374 -0.045803,-6.071691c-9.069761,1.97079 -10.986849,-3.846088 -10.986849,-3.846088c-1.485052,-3.766459 -3.621152,-4.769786 -3.621152,-4.769786c-2.964179,-2.022581 0.224873,-1.982766 0.224873,-1.982766c3.274733,0.226911 4.9988,3.36035 4.9988,3.36035c2.910477,4.984785 7.636436,3.543497 9.491795,2.707391c0.296475,-2.10221 1.140544,-3.543497 2.070358,-4.355715c-7.240265,-0.82413 -14.856762,-3.623127 -14.856762,-16.120954c0,-3.563437 1.272092,-6.469837 3.354362,-8.753219c-0.332468,-0.828143 -1.455239,-4.146704 0.322466,-8.63575c0,0 2.735293,-0.875921 8.970192,3.344425c2.59986,-0.7266 5.388919,-1.084931 8.161988,-1.096908c2.771095,0.011976 5.562065,0.374257 8.166002,1.100857c6.22305,-4.224295 8.962293,-3.344425 8.962293,-3.344425c1.783693,4.493059 0.660922,7.807607 0.32648,8.6318c2.090233,2.283382 3.352387,5.189846 3.352387,8.753219c0,12.529679 -7.628473,15.288798 -14.894602,16.097066c1.174562,1.01129 2.213691,2.994056 2.213691,6.03589c0,4.359728 -0.043828,7.875323 -0.043828,8.950317c0,0.867958 0.593205,1.883198 2.245542,1.564681c12.951714,-4.31985 22.2882,-16.542925 22.2882,-30.947839c0,-18.012115 -14.603987,-32.616102 -32.616102,-32.616102z"/>
 </g>
</svg>